<svg width="77" height="77" viewBox="0 0 77 77" fill="none" xmlns="http://www.w3.org/2000/svg">
<circle cx="3.59456" cy="38.1023" r="3.59456" transform="rotate(-90 3.59456 38.1023)"/>
<circle cx="3.59456" cy="55.6178" r="3.59456" transform="rotate(-90 3.59456 55.6178)"/>
<circle cx="3.59456" cy="73.1329" r="3.59456" transform="rotate(-90 3.59456 73.1329)"/>
<circle cx="3.59456" cy="20.8486" r="3.59456" transform="rotate(-90 3.59456 20.8486)"/>
<circle cx="3.59456" cy="3.59452" r="3.59456" transform="rotate(-90 3.59456 3.59452)"/>
<circle cx="20.8485" cy="38.1023" r="3.59456" transform="rotate(-90 20.8485 38.1023)"/>
<circle cx="20.8485" cy="55.6178" r="3.59456" transform="rotate(-90 20.8485 55.6178)"/>
<circle cx="20.8485" cy="73.1329" r="3.59456" transform="rotate(-90 20.8485 73.1329)"/>
<circle cx="20.8485" cy="20.8486" r="3.59456" transform="rotate(-90 20.8485 20.8486)"/>
<circle cx="20.8485" cy="3.59458" r="3.59456" transform="rotate(-90 20.8485 3.59458)"/>
<circle cx="38.1024" cy="38.1023" r="3.59456" transform="rotate(-90 38.1024 38.1023)"/>
<circle cx="38.1024" cy="55.6178" r="3.59456" transform="rotate(-90 38.1024 55.6178)"/>
<circle cx="38.1024" cy="73.1329" r="3.59456" transform="rotate(-90 38.1024 73.1329)"/>
<circle cx="38.1024" cy="20.8486" r="3.59456" transform="rotate(-90 38.1024 20.8486)"/>
<circle cx="38.1024" cy="3.59458" r="3.59456" transform="rotate(-90 38.1024 3.59458)"/>
<circle cx="55.3563" cy="38.1023" r="3.59456" transform="rotate(-90 55.3563 38.1023)"/>
<circle cx="55.3563" cy="55.6178" r="3.59456" transform="rotate(-90 55.3563 55.6178)"/>
<circle cx="55.3563" cy="73.1329" r="3.59456" transform="rotate(-90 55.3563 73.1329)"/>
<circle cx="55.3563" cy="20.8486" r="3.59456" transform="rotate(-90 55.3563 20.8486)"/>
<circle cx="55.3563" cy="3.59458" r="3.59456" transform="rotate(-90 55.3563 3.59458)"/>
<circle cx="72.6102" cy="38.1023" r="3.59456" transform="rotate(-90 72.6102 38.1023)"/>
<circle cx="72.6102" cy="55.6178" r="3.59456" transform="rotate(-90 72.6102 55.6178)"/>
<circle cx="72.6102" cy="73.1329" r="3.59456" transform="rotate(-90 72.6102 73.1329)"/>
<circle cx="72.6102" cy="20.8486" r="3.59456" transform="rotate(-90 72.6102 20.8486)"/>
<circle cx="72.6102" cy="3.59458" r="3.59456" transform="rotate(-90 72.6102 3.59458)"/>
</svg>
