<svg width="117" height="117" viewBox="0 0 117 117" fill="none" xmlns="http://www.w3.org/2000/svg">
<g clip-path="url(#clip0_49_61)">
<path d="M75.5738 18.6744L23.5069 55.582C21.4955 57.0079 21.4946 59.9996 23.5069 61.426L75.5738 98.3336C77.9362 100.008 81.2266 98.318 81.2266 95.4113V21.5965C81.2266 18.6973 77.9435 16.9941 75.5738 18.6744Z" fill="#5F4BDB"/>
<path d="M1.51048 34.2668C-1.33066 36.2807 0.105107 40.7706 3.58152 40.7706H14.8332V24.8228L1.51048 34.2668Z" fill="#5F4BDB"/>
<path d="M113.417 66.4556H88.3887V92.1686L115.488 72.9594C118.329 70.9457 116.893 66.4556 113.417 66.4556Z" fill="#3E2F9A"/>
<path d="M27.6489 18.6601C25.279 16.9801 21.9961 18.6832 21.9961 21.5819V47.8578L45.4178 31.2555L27.6489 18.6601Z" fill="#FE8D4D"/>
</g>
<defs>
<clipPath id="clip0_49_61">
<rect width="117" height="117" fill="white"/>
</clipPath>
</defs>
</svg>
