<svg width="150" height="59" viewBox="0 0 150 59" fill="none" xmlns="http://www.w3.org/2000/svg">
<path d="M82.0759 44.9969C80.2073 44.9969 78.7013 44.4172 77.5578 43.2579C76.4144 42.0703 75.8427 40.5576 75.8427 38.7197C75.8427 37.8148 76.01 36.9665 76.3447 36.1748C76.6793 35.3831 77.2371 34.6338 78.018 33.9269L91.2794 21.9662C91.4188 21.8248 91.4886 21.6551 91.4886 21.4572C91.4886 21.231 91.4049 21.0472 91.2376 20.9058C91.0702 20.7362 90.8889 20.6513 90.6937 20.6513H76.5538V15.3072H91.5722C93.4408 15.3072 94.9468 15.901 96.0903 17.0886C97.2338 18.2479 97.8055 19.7465 97.8055 21.5844C97.8055 22.461 97.6382 23.3093 97.3035 24.1293C96.9967 24.921 96.4808 25.642 95.7556 26.2924L82.3269 38.3379C82.1875 38.4793 82.1178 38.649 82.1178 38.8469C82.1178 39.0448 82.2014 39.2286 82.3688 39.3983C82.5361 39.5679 82.7174 39.6528 82.9126 39.6528H98.0147V44.9969H82.0759Z" fill="#363848"/>
<path d="M102.182 44.9969V23.3658H107.955V44.9969H102.182ZM105.068 20.7786C104.092 20.7786 103.242 20.4251 102.516 19.7182C101.819 18.9831 101.471 18.1206 101.471 17.131C101.471 16.1413 101.819 15.2931 102.516 14.5862C103.242 13.851 104.092 13.4834 105.068 13.4834C106.044 13.4834 106.881 13.851 107.578 14.5862C108.303 15.2931 108.666 16.1413 108.666 17.131C108.666 18.1206 108.303 18.9831 107.578 19.7182C106.881 20.4251 106.044 20.7786 105.068 20.7786Z" fill="#363848"/>
<path d="M113.126 44.9969V29.5158C113.126 27.5931 113.655 26.0945 114.715 25.02C115.803 23.9172 117.295 23.3658 119.192 23.3658H125.09V28.3283H120.196C119.833 28.3283 119.512 28.4555 119.233 28.71C118.982 28.9645 118.857 29.2896 118.857 29.6855V44.9969H113.126Z" fill="#363848"/>
<path d="M138.496 45.5059C136.292 45.5059 134.326 45.011 132.597 44.0214C130.868 43.0035 129.501 41.6462 128.497 39.9497C127.493 38.2248 126.991 36.3021 126.991 34.1814C126.991 32.0607 127.493 30.1521 128.497 28.4555C129.501 26.7307 130.868 25.3734 132.597 24.3838C134.326 23.3658 136.292 22.8569 138.496 22.8569C140.699 22.8569 142.665 23.3658 144.394 24.3838C146.123 25.3734 147.49 26.7307 148.494 28.4555C149.498 30.1521 150 32.0607 150 34.1814C150 36.3021 149.498 38.2248 148.494 39.9497C147.49 41.6462 146.123 43.0035 144.394 44.0214C142.665 45.011 140.699 45.5059 138.496 45.5059ZM138.496 40.5434C140.253 40.5434 141.633 39.9355 142.637 38.7197C143.669 37.4755 144.185 35.9628 144.185 34.1814C144.185 32.4 143.669 30.9014 142.637 29.6855C141.633 28.4414 140.253 27.8193 138.496 27.8193C136.739 27.8193 135.344 28.4414 134.312 29.6855C133.308 30.9014 132.806 32.4 132.806 34.1814C132.806 35.9628 133.308 37.4755 134.312 38.7197C135.344 39.9355 136.739 40.5434 138.496 40.5434Z" fill="#363848"/>
<g clip-path="url(#clip0_446_2)">
<path d="M38.1027 9.41494L11.8518 28.0229C10.8377 28.7418 10.8372 30.2502 11.8518 30.9693L38.1027 49.5773C39.2937 50.4217 40.9527 49.5695 40.9527 48.104V10.8882C40.9527 9.42646 39.2974 8.56778 38.1027 9.41494Z" fill="#5F4BDB"/>
<path d="M0.761549 17.2766C-0.670887 18.292 0.0529924 20.5557 1.80572 20.5557H7.47855V12.5151L0.761549 17.2766Z" fill="#5F4BDB"/>
<path d="M57.1824 33.5054H44.5638V46.4693L58.2266 36.7844C59.659 35.7692 58.9352 33.5054 57.1824 33.5054Z" fill="#3E2F9A"/>
<path d="M13.9401 9.40804C12.7452 8.56099 11.0901 9.41967 11.0901 10.8811V24.1288L22.8988 15.7583L13.9401 9.40804Z" fill="#FE8D4D"/>
</g>
<defs>
<clipPath id="clip0_446_2">
<rect width="58.9888" height="58.9888" fill="white"/>
</clipPath>
</defs>
</svg>
