<svg width="144" height="57" viewBox="0 0 144 57" fill="none" xmlns="http://www.w3.org/2000/svg">
<path d="M78.7929 43.1968C76.9991 43.1968 75.5533 42.6403 74.4555 41.5274C73.3578 40.3873 72.809 38.9351 72.809 37.1707C72.809 36.302 72.9696 35.4877 73.2909 34.7276C73.6122 33.9676 74.1476 33.2482 74.8973 32.5696L87.6282 21.0873C87.7621 20.9516 87.829 20.7887 87.829 20.5987C87.829 20.3815 87.7487 20.2051 87.5881 20.0694C87.4274 19.9065 87.2534 19.8251 87.066 19.8251H73.4917V14.6947H87.9094C89.7032 14.6947 91.149 15.2647 92.2467 16.4048C93.3444 17.5178 93.8933 18.9564 93.8933 20.7209C93.8933 21.5623 93.7327 22.3767 93.4114 23.1639C93.1169 23.924 92.6215 24.6161 91.9254 25.2405L79.0339 36.8042C78.9 36.9399 78.8331 37.1028 78.8331 37.2928C78.8331 37.4828 78.9134 37.6593 79.074 37.8221C79.2347 37.985 79.4087 38.0664 79.5961 38.0664H94.0941V43.1968H78.7929Z" fill="white"/>
<path d="M98.0945 43.1968V22.431H103.637V43.1968H98.0945ZM100.866 19.9472C99.9285 19.9472 99.1119 19.6079 98.4158 18.9293C97.7464 18.2235 97.4117 17.3956 97.4117 16.4455C97.4117 15.4955 97.7464 14.6811 98.4158 14.0025C99.1119 13.2967 99.9285 12.9438 100.866 12.9438C101.803 12.9438 102.606 13.2967 103.275 14.0025C103.971 14.6811 104.319 15.4955 104.319 16.4455C104.319 17.3956 103.971 18.2235 103.275 18.9293C102.606 19.6079 101.803 19.9472 100.866 19.9472Z" fill="white"/>
<path d="M108.601 43.1968V28.335C108.601 26.4891 109.109 25.0505 110.127 24.019C111.171 22.9603 112.603 22.431 114.424 22.431H120.087V27.1949H115.388C115.04 27.1949 114.732 27.3171 114.464 27.5614C114.223 27.8057 114.103 28.1178 114.103 28.4979V43.1968H108.601Z" fill="white"/>
<path d="M132.956 43.6854C130.841 43.6854 128.953 43.2104 127.293 42.2603C125.633 41.2831 124.321 39.9801 123.357 38.3515C122.394 36.6956 121.912 34.8498 121.912 32.8139C121.912 30.778 122.394 28.9458 123.357 27.3171C124.321 25.6612 125.633 24.3583 127.293 23.4082C128.953 22.431 130.841 21.9424 132.956 21.9424C135.071 21.9424 136.958 22.431 138.618 23.4082C140.278 24.3583 141.59 25.6612 142.554 27.3171C143.518 28.9458 144 30.778 144 32.8139C144 34.8498 143.518 36.6956 142.554 38.3515C141.59 39.9801 140.278 41.2831 138.618 42.2603C136.958 43.2104 135.071 43.6854 132.956 43.6854ZM132.956 38.9215C134.643 38.9215 135.968 38.3379 136.932 37.1707C137.922 35.9763 138.418 34.524 138.418 32.8139C138.418 31.1038 137.922 29.6651 136.932 28.4979C135.968 27.3035 134.643 26.7063 132.956 26.7063C131.269 26.7063 129.93 27.3035 128.94 28.4979C127.976 29.6651 127.494 31.1038 127.494 32.8139C127.494 34.524 127.976 35.9763 128.94 37.1707C129.93 38.3379 131.269 38.9215 132.956 38.9215Z" fill="white"/>
<g clip-path="url(#clip0_20_357)">
<path d="M36.5785 9.03854L11.3777 26.9022C10.4041 27.5923 10.4037 29.0404 11.3777 29.7308L36.5785 47.5944C37.722 48.405 39.3146 47.5869 39.3146 46.18V10.4528C39.3146 9.0496 37.7255 8.22527 36.5785 9.03854Z" fill="white"/>
<path d="M0.731087 16.5854C-0.644052 17.5602 0.0508728 19.7333 1.73349 19.7333H7.17941V12.0144L0.731087 16.5854Z" fill="white"/>
<path d="M54.8952 32.1651H42.7812V44.6105L55.8976 35.313C57.2727 34.3384 56.5778 32.1651 54.8952 32.1651Z" fill="white"/>
<path d="M13.3825 9.03165C12.2354 8.21849 10.6465 9.04282 10.6465 10.4458V23.1636L21.9828 15.1279L13.3825 9.03165Z" fill="white"/>
</g>
<defs>
<clipPath id="clip0_20_357">
<rect width="56.6292" height="56.6292" fill="white"/>
</clipPath>
</defs>
</svg>
