<svg width="282" height="279" viewBox="0 0 282 279" fill="none" xmlns="http://www.w3.org/2000/svg">
<g filter="url(#filter0_d_928_11)">
<rect x="39" y="28" width="204" height="201" rx="17" fill="white"/>
</g>
<path fill-rule="evenodd" clip-rule="evenodd" d="M71 202V199.958L72 199.958V202H71ZM72 191.792V187.708L71 187.708V191.792H72ZM71 179.542L72 179.542V175.458L71 175.458V179.542ZM71 167.292H72V163.208H71V167.292ZM71 155.042L72 155.042V150.958L71 150.958V155.042ZM71 142.792L72 142.792V138.708H71V142.792ZM71 130.542H72V126.458H71V130.542ZM71 118.292L72 118.292V114.208L71 114.208V118.292ZM71 106.042L72 106.042V101.958L71 101.958V106.042ZM71 93.7917H72V89.7083L71 89.7083V93.7917ZM71 81.5417L72 81.5417V77.4583L71 77.4583V81.5417ZM71 69.2917H72V65.2083L71 65.2083V69.2917ZM71 57.0417H72V55H71V57.0417Z" fill="#C4C4C4"/>
<path fill-rule="evenodd" clip-rule="evenodd" d="M99 202V199.958L100 199.958V202H99ZM100 191.792V187.708L99 187.708V191.792H100ZM99 179.542L100 179.542V175.458L99 175.458V179.542ZM99 167.292H100V163.208H99V167.292ZM99 155.042L100 155.042V150.958L99 150.958V155.042ZM99 142.792L100 142.792V138.708H99V142.792ZM99 130.542H100V126.458H99V130.542ZM99 118.292L100 118.292V114.208L99 114.208V118.292ZM99 106.042L100 106.042V101.958L99 101.958V106.042ZM99 93.7917H100V89.7083L99 89.7083V93.7917ZM99 81.5417L100 81.5417V77.4583L99 77.4583V81.5417ZM99 69.2917H100V65.2083L99 65.2083V69.2917ZM99 57.0417H100V55H99V57.0417Z" fill="#C4C4C4"/>
<path fill-rule="evenodd" clip-rule="evenodd" d="M127 202V199.958L128 199.958V202H127ZM128 191.792V187.708L127 187.708V191.792H128ZM127 179.542L128 179.542V175.458L127 175.458V179.542ZM127 167.292H128V163.208H127V167.292ZM127 155.042L128 155.042V150.958L127 150.958V155.042ZM127 142.792L128 142.792V138.708H127V142.792ZM127 130.542H128V126.458H127V130.542ZM127 118.292L128 118.292V114.208L127 114.208V118.292ZM127 106.042L128 106.042V101.958L127 101.958V106.042ZM127 93.7917H128V89.7083L127 89.7083V93.7917ZM127 81.5417L128 81.5417V77.4583L127 77.4583V81.5417ZM127 69.2917H128V65.2083L127 65.2083V69.2917ZM127 57.0417H128V55H127V57.0417Z" fill="#C4C4C4"/>
<path fill-rule="evenodd" clip-rule="evenodd" d="M155 202V199.958L156 199.958V202H155ZM156 191.792V187.708L155 187.708V191.792H156ZM155 179.542L156 179.542V175.458L155 175.458V179.542ZM155 167.292H156V163.208H155V167.292ZM155 155.042L156 155.042V150.958L155 150.958V155.042ZM155 142.792L156 142.792V138.708H155V142.792ZM155 130.542H156V126.458H155V130.542ZM155 118.292L156 118.292V114.208L155 114.208V118.292ZM155 106.042L156 106.042V101.958L155 101.958V106.042ZM155 93.7917H156V89.7083L155 89.7083V93.7917ZM155 81.5417L156 81.5417V77.4583L155 77.4583V81.5417ZM155 69.2917H156V65.2083L155 65.2083V69.2917ZM155 57.0417H156V55H155V57.0417Z" fill="#C4C4C4"/>
<path fill-rule="evenodd" clip-rule="evenodd" d="M183 202V199.958L184 199.958V202H183ZM184 191.792V187.708L183 187.708V191.792H184ZM183 179.542L184 179.542V175.458L183 175.458V179.542ZM183 167.292H184V163.208H183V167.292ZM183 155.042L184 155.042V150.958L183 150.958V155.042ZM183 142.792L184 142.792V138.708H183V142.792ZM183 130.542H184V126.458H183V130.542ZM183 118.292L184 118.292V114.208L183 114.208V118.292ZM183 106.042L184 106.042V101.958L183 101.958V106.042ZM183 93.7917H184V89.7083L183 89.7083V93.7917ZM183 81.5417L184 81.5417V77.4583L183 77.4583V81.5417ZM183 69.2917H184V65.2083L183 65.2083V69.2917ZM183 57.0417H184V55H183V57.0417Z" fill="#C4C4C4"/>
<path fill-rule="evenodd" clip-rule="evenodd" d="M211 202V199.958L212 199.958V202H211ZM212 191.792V187.708L211 187.708V191.792H212ZM211 179.542L212 179.542V175.458L211 175.458V179.542ZM211 167.292H212V163.208H211V167.292ZM211 155.042L212 155.042V150.958L211 150.958V155.042ZM211 142.792L212 142.792V138.708H211V142.792ZM211 130.542H212V126.458H211V130.542ZM211 118.292L212 118.292V114.208L211 114.208V118.292ZM211 106.042L212 106.042V101.958L211 101.958V106.042ZM211 93.7917H212V89.7083L211 89.7083V93.7917ZM211 81.5417L212 81.5417V77.4583L211 77.4583V81.5417ZM211 69.2917H212V65.2083L211 65.2083V69.2917ZM211 57.0417H212V55H211V57.0417Z" fill="#C4C4C4"/>
<path fill-rule="evenodd" clip-rule="evenodd" d="M209.62 102.098C208.459 102.466 206.566 104.114 204.929 108.358L200.333 120.276C198.518 124.983 195.772 128.736 192.083 130.022C187.936 131.467 184.12 129.384 181.451 125.726L176.541 119C174.894 116.743 173.641 116.619 172.996 116.757C172.08 116.954 170.473 118.023 168.876 121.291L153.513 152.724C151.496 156.852 148.53 160.068 144.666 160.594C140.597 161.148 137.207 158.546 134.873 154.826L128.803 145.149L117.995 126.791L110.795 114.333C109.13 111.453 107.625 110.841 106.859 110.841H105.336C104.662 110.841 103.487 111.283 102.088 113.256C100.724 115.18 99.4684 118.156 98.6381 122.049L89.2262 166.176C88.5604 169.297 87.5414 171.924 86.2044 173.908C84.887 175.863 83.0589 177.472 80.7333 177.895C78.2824 178.342 76.0647 177.338 74.395 175.656C72.7745 174.024 71.5283 171.65 70.6331 168.773L68.1354 160.747C67.6431 159.165 68.5266 157.483 70.1086 156.991C71.6906 156.499 73.3722 157.382 73.8645 158.964L76.3621 166.991C77.093 169.339 77.9527 170.723 78.6531 171.429C79.2864 172.067 79.6048 172.003 79.6539 171.993C79.6553 171.993 79.6565 171.993 79.6574 171.993C79.8176 171.963 80.4251 171.748 81.2284 170.555C82.012 169.392 82.7985 167.548 83.3582 164.924L92.7701 120.798C93.7096 116.393 95.2131 112.578 97.1936 109.785C99.1392 107.042 101.895 104.841 105.336 104.841H106.859C110.823 104.841 113.914 107.74 115.99 111.331L123.177 123.768L133.93 142.032L139.956 151.638C141.724 154.455 143.178 154.741 143.856 154.649C144.74 154.528 146.425 153.563 148.123 150.09L163.485 118.656C165.399 114.74 168.155 111.659 171.738 110.891C175.593 110.064 178.977 112.16 181.388 115.463L186.297 122.189C188.087 124.641 189.394 124.605 190.108 124.356C191.281 123.947 193.135 122.265 194.735 118.117L199.331 106.199C201.181 101.403 204.002 97.5864 207.803 96.3791C212.058 95.0275 215.88 97.3406 218.507 101.163L225.472 111.294C226.411 112.659 226.065 114.527 224.699 115.466C223.334 116.404 221.466 116.059 220.528 114.693L213.563 104.562C211.714 101.872 210.326 101.873 209.62 102.098Z" fill="#44B563"/>
<g filter="url(#filter1_d_928_11)">
<path d="M189 115.5C189 122.404 183.404 128 176.5 128C169.596 128 164 122.404 164 115.5C164 108.596 169.596 103 176.5 103C183.404 103 189 108.596 189 115.5Z" fill="#F8A94C"/>
</g>
<g filter="url(#filter2_d_928_11)">
<path fill-rule="evenodd" clip-rule="evenodd" d="M176.5 124C181.194 124 185 120.194 185 115.5C185 110.806 181.194 107 176.5 107C171.806 107 168 110.806 168 115.5C168 120.194 171.806 124 176.5 124ZM176.5 128C183.404 128 189 122.404 189 115.5C189 108.596 183.404 103 176.5 103C169.596 103 164 108.596 164 115.5C164 122.404 169.596 128 176.5 128Z" fill="white"/>
</g>
<defs>
<filter id="filter0_d_928_11" x="0" y="0" width="282" height="279" filterUnits="userSpaceOnUse" color-interpolation-filters="sRGB">
<feFlood flood-opacity="0" result="BackgroundImageFix"/>
<feColorMatrix in="SourceAlpha" type="matrix" values="0 0 0 0 0 0 0 0 0 0 0 0 0 0 0 0 0 0 127 0" result="hardAlpha"/>
<feOffset dy="11"/>
<feGaussianBlur stdDeviation="19.5"/>
<feColorMatrix type="matrix" values="0 0 0 0 0 0 0 0 0 0 0 0 0 0 0 0 0 0 0.07 0"/>
<feBlend mode="normal" in2="BackgroundImageFix" result="effect1_dropShadow_928_11"/>
<feBlend mode="normal" in="SourceGraphic" in2="effect1_dropShadow_928_11" result="shape"/>
</filter>
<filter id="filter1_d_928_11" x="135" y="93" width="83" height="83" filterUnits="userSpaceOnUse" color-interpolation-filters="sRGB">
<feFlood flood-opacity="0" result="BackgroundImageFix"/>
<feColorMatrix in="SourceAlpha" type="matrix" values="0 0 0 0 0 0 0 0 0 0 0 0 0 0 0 0 0 0 127 0" result="hardAlpha"/>
<feOffset dy="19"/>
<feGaussianBlur stdDeviation="14.5"/>
<feColorMatrix type="matrix" values="0 0 0 0 0.243137 0 0 0 0 0.207843 0 0 0 0 0.470588 0 0 0 0.14 0"/>
<feBlend mode="normal" in2="BackgroundImageFix" result="effect1_dropShadow_928_11"/>
<feBlend mode="normal" in="SourceGraphic" in2="effect1_dropShadow_928_11" result="shape"/>
</filter>
<filter id="filter2_d_928_11" x="135" y="93" width="83" height="83" filterUnits="userSpaceOnUse" color-interpolation-filters="sRGB">
<feFlood flood-opacity="0" result="BackgroundImageFix"/>
<feColorMatrix in="SourceAlpha" type="matrix" values="0 0 0 0 0 0 0 0 0 0 0 0 0 0 0 0 0 0 127 0" result="hardAlpha"/>
<feOffset dy="19"/>
<feGaussianBlur stdDeviation="14.5"/>
<feColorMatrix type="matrix" values="0 0 0 0 0.243137 0 0 0 0 0.207843 0 0 0 0 0.470588 0 0 0 0.14 0"/>
<feBlend mode="normal" in2="BackgroundImageFix" result="effect1_dropShadow_928_11"/>
<feBlend mode="normal" in="SourceGraphic" in2="effect1_dropShadow_928_11" result="shape"/>
</filter>
</defs>
</svg>
