<svg width="81" height="43" viewBox="0 0 81 43" fill="none" xmlns="http://www.w3.org/2000/svg">
<path fill-rule="evenodd" clip-rule="evenodd" d="M80.9581 3.55448L72.5804 14.1082C68.9399 18.6942 62.0576 18.9272 58.1154 14.5977L53.5638 9.59904C51.7307 7.58582 48.5436 7.64902 46.7917 9.73334L42.9365 14.3201C39.1737 18.797 32.2981 18.8435 28.4751 14.4179L23.8098 9.01743C22.1667 7.11531 19.2839 6.92802 17.4084 8.60153L3.66447 20.8655L0.33551 17.1348L14.0795 4.87084C18.0388 1.33787 24.1246 1.73326 27.5935 5.74885L32.2588 11.1494C34.0697 13.2457 37.3265 13.2236 39.1089 11.103L42.9642 6.51623C46.6626 2.11602 53.3909 1.98259 57.2609 6.23272L61.8124 11.2314C63.6798 13.2822 66.9398 13.1719 68.6642 10.9995L77.0419 0.445801L80.9581 3.55448Z" fill="#5F4BDB"/>
<path fill-rule="evenodd" clip-rule="evenodd" d="M80.9581 25.5545L72.5804 36.1082C68.9399 40.6942 62.0576 40.9272 58.1154 36.5977L53.5638 31.599C51.7307 29.5858 48.5436 29.649 46.7917 31.7333L42.9365 36.3201C39.1737 40.797 32.2981 40.8435 28.4751 36.4179L23.8098 31.0174C22.1667 29.1153 19.2839 28.928 17.4084 30.6015L3.66447 42.8655L0.33551 39.1348L14.0795 26.8708C18.0388 23.3379 24.1246 23.7333 27.5935 27.7489L32.2588 33.1494C34.0697 35.2457 37.3265 35.2236 39.1089 33.103L42.9642 28.5162C46.6626 24.116 53.3909 23.9826 57.2609 28.2327L61.8124 33.2314C63.6798 35.2822 66.9398 35.1719 68.6642 32.9995L77.0419 22.4458L80.9581 25.5545Z" fill="#5F4BDB"/>
</svg>
