<svg width="42" height="23" viewBox="0 0 42 23" fill="none" xmlns="http://www.w3.org/2000/svg">
	<circle cx="1.94536" cy="20.6208" r="1.94536" transform="rotate(-90 1.94536 20.6208)" />
	<circle cx="1.94536" cy="11.283" r="1.94536" transform="rotate(-90 1.94536 11.283)" />
	<circle cx="1.94536" cy="1.94539" r="1.94536" transform="rotate(-90 1.94536 1.94539)" />
	<circle cx="11.283" cy="20.6208" r="1.94536" transform="rotate(-90 11.283 20.6208)" />
	<circle cx="11.283" cy="11.283" r="1.94536" transform="rotate(-90 11.283 11.283)" />
	<circle cx="11.283" cy="1.94539" r="1.94536" transform="rotate(-90 11.283 1.94539)" />
	<circle cx="20.6208" cy="20.6208" r="1.94536" transform="rotate(-90 20.6208 20.6208)" />
	<circle cx="20.6208" cy="11.283" r="1.94536" transform="rotate(-90 20.6208 11.283)" />
	<circle cx="20.6208" cy="1.94539" r="1.94536" transform="rotate(-90 20.6208 1.94539)" />
	<circle cx="29.9584" cy="20.6208" r="1.94536" transform="rotate(-90 29.9584 20.6208)" />
	<circle cx="29.9584" cy="11.283" r="1.94536" transform="rotate(-90 29.9584 11.283)" />
	<circle cx="29.9584" cy="1.94539" r="1.94536" transform="rotate(-90 29.9584 1.94539)" />
	<circle cx="39.2963" cy="20.6208" r="1.94536" transform="rotate(-90 39.2963 20.6208)" />
	<circle cx="39.2963" cy="11.283" r="1.94536" transform="rotate(-90 39.2963 11.283)" />
	<circle cx="39.2963" cy="1.94539" r="1.94536" transform="rotate(-90 39.2963 1.94539)" />
</svg>