<svg width="20" height="20" viewBox="0 0 20 20" fill="none" xmlns="http://www.w3.org/2000/svg">
<path fill-rule="evenodd" clip-rule="evenodd" d="M10.2762 1.39052C9.75552 0.869825 8.9113 0.869825 8.39061 1.39052L0.390606 9.39052C-0.130094 9.91122 -0.130094 10.7554 0.390606 11.2761L8.39061 19.2761C8.9113 19.7968 9.75552 19.7968 10.2762 19.2761C10.7969 18.7554 10.7969 17.9112 10.2762 17.3905L3.21903 10.3333L10.2762 3.27614C10.7969 2.75544 10.7969 1.91122 10.2762 1.39052Z"/>
<path fill-rule="evenodd" clip-rule="evenodd" d="M19.6095 1.39052C19.0888 0.869825 18.2446 0.869825 17.7239 1.39052L9.72386 9.39052C9.20316 9.91122 9.20316 10.7554 9.72386 11.2761L17.7239 19.2761C18.2446 19.7968 19.0888 19.7968 19.6095 19.2761C20.1302 18.7554 20.1302 17.9112 19.6095 17.3905L12.5523 10.3333L19.6095 3.27614C20.1302 2.75544 20.1302 1.91122 19.6095 1.39052Z"/>
</svg>
