<svg width="20" height="20" viewBox="0 0 20 20" fill="none" xmlns="http://www.w3.org/2000/svg">
<path fill-rule="evenodd" clip-rule="evenodd" d="M9.72378 19.2761C10.2445 19.7968 11.0887 19.7968 11.6094 19.2761L19.6094 11.2761C20.1301 10.7554 20.1301 9.91118 19.6094 9.39048L11.6094 1.39048C11.0887 0.869785 10.2445 0.869785 9.72378 1.39048C9.20308 1.91118 9.20308 2.7554 9.72378 3.2761L16.781 10.3333L9.72378 17.3905C9.20308 17.9112 9.20308 18.7554 9.72378 19.2761Z"/>
<path fill-rule="evenodd" clip-rule="evenodd" d="M0.390524 19.2761C0.911223 19.7968 1.75544 19.7968 2.27614 19.2761L10.2761 11.2761C10.7968 10.7554 10.7968 9.91118 10.2761 9.39048L2.27614 1.39048C1.75544 0.869785 0.911223 0.869785 0.390524 1.39048C-0.130175 1.91118 -0.130175 2.7554 0.390524 3.2761L7.44772 10.3333L0.390524 17.3905C-0.130175 17.9112 -0.130175 18.7554 0.390524 19.2761Z"/>
</svg>
