<svg width="20" height="20" viewBox="0 0 20 20" fill="none" xmlns="http://www.w3.org/2000/svg">
<path d="M1 5.75H19C19.2652 5.75 19.5196 5.64464 19.7071 5.45711C19.8946 5.26957 20 5.01522 20 4.75C20 4.48478 19.8946 4.23043 19.7071 4.04289C19.5196 3.85536 19.2652 3.75 19 3.75H1C0.734784 3.75 0.48043 3.85536 0.292893 4.04289C0.105357 4.23043 0 4.48478 0 4.75C0 5.01522 0.105357 5.26957 0.292893 5.45711C0.48043 5.64464 0.734784 5.75 1 5.75V5.75ZM19 13.75H1C0.734784 13.75 0.48043 13.8554 0.292893 14.0429C0.105357 14.2304 0 14.4848 0 14.75C0 15.0152 0.105357 15.2696 0.292893 15.4571C0.48043 15.6446 0.734784 15.75 1 15.75H19C19.2652 15.75 19.5196 15.6446 19.7071 15.4571C19.8946 15.2696 20 15.0152 20 14.75C20 14.4848 19.8946 14.2304 19.7071 14.0429C19.5196 13.8554 19.2652 13.75 19 13.75ZM19 8.75H1C0.734784 8.75 0.48043 8.85536 0.292893 9.04289C0.105357 9.23043 0 9.48478 0 9.75C0 10.0152 0.105357 10.2696 0.292893 10.4571C0.48043 10.6446 0.734784 10.75 1 10.75H19C19.2652 10.75 19.5196 10.6446 19.7071 10.4571C19.8946 10.2696 20 10.0152 20 9.75C20 9.48478 19.8946 9.23043 19.7071 9.04289C19.5196 8.85536 19.2652 8.75 19 8.75Z"/>
</svg>
