<svg width="20" height="21" viewBox="0 0 20 21" fill="none" xmlns="http://www.w3.org/2000/svg">
    <path class="svg-circle" d="M19.0397 6.72224C18.2235 4.99229 16.9309 3.53961 15.3025 2.52038C13.0376 1.10675 10.3548 0.657663 7.754 1.25904C5.15323 1.85652 2.93905 3.43417 1.52541 5.69911C0.107872 7.96405 -0.341211 10.6429 0.26017 13.2476C0.861551 15.8484 2.4392 18.0626 4.70024 19.4762C6.29351 20.472 8.12108 20.9992 9.99161 20.9992H10.1127C11.9754 20.9758 13.7873 20.4369 15.3572 19.445C15.8141 19.156 15.9468 18.5546 15.6579 18.0977C15.3689 17.6408 14.7675 17.5081 14.3106 17.797C13.0493 18.5976 11.5888 19.031 10.0892 19.0506C8.55064 19.0701 7.04719 18.6444 5.73508 17.8283C3.91141 16.688 2.64226 14.9073 2.16194 12.8142C1.68162 10.721 2.04088 8.56543 3.18116 6.74177C5.53202 2.98118 10.5071 1.83309 14.2677 4.18394C15.5798 5.00401 16.6185 6.17163 17.2746 7.56183C17.915 8.91689 18.1649 10.4203 17.997 11.9043C17.9384 12.4393 18.3211 12.9235 18.86 12.9821C19.395 13.0406 19.8793 12.658 19.9378 12.1191C20.1448 10.272 19.8324 8.40533 19.0397 6.72224V6.72224Z"/>
	<path class="svg-check" d="M13.229 7.6088L8.51947 12.3183L6.77391 10.5727C6.39121 10.19 5.77421 10.19 5.39151 10.5727C5.00882 10.9554 5.00882 11.5724 5.39151 11.9551L7.82828 14.3919C8.01963 14.5832 8.26955 14.677 8.51947 14.677C8.7694 14.677 9.01932 14.5832 9.21067 14.3919L14.6075 8.99119C14.9902 8.6085 14.9902 7.9915 14.6075 7.6088C14.2248 7.23001 13.6078 7.23001 13.229 7.6088Z" />
</svg>