<svg width="20" height="20" viewBox="0 0 20 20" fill="none" xmlns="http://www.w3.org/2000/svg">
<path d="M10 0C8.02219 0 6.08879 0.586489 4.4443 1.6853C2.79981 2.78412 1.51809 4.3459 0.761209 6.17316C0.00433288 8.00042 -0.1937 10.0111 0.192152 11.9509C0.578004 13.8907 1.53041 15.6725 2.92894 17.0711C4.32746 18.4696 6.10929 19.422 8.0491 19.8078C9.98891 20.1937 11.9996 19.9957 13.8268 19.2388C15.6541 18.4819 17.2159 17.2002 18.3147 15.5557C19.4135 13.9112 20 11.9778 20 10C19.9969 7.34879 18.9423 4.80707 17.0676 2.93239C15.1929 1.0577 12.6512 0.0031277 10 0V0ZM10 18.1818C8.38179 18.1818 6.79992 17.702 5.45443 16.8029C4.10894 15.9039 3.06025 14.6261 2.44099 13.131C1.82173 11.636 1.6597 9.99092 1.9754 8.4038C2.29109 6.81669 3.07034 5.35883 4.21458 4.21458C5.35883 3.07033 6.81669 2.29109 8.40381 1.97539C9.99093 1.6597 11.636 1.82172 13.131 2.44098C14.6261 3.06025 15.9039 4.10893 16.8029 5.45442C17.702 6.79992 18.1818 8.38179 18.1818 10C18.1794 12.1692 17.3166 14.2489 15.7828 15.7828C14.2489 17.3166 12.1692 18.1794 10 18.1818V18.1818Z"/>
<path d="M13.9309 7.05739L9.11816 11.4692L7.00635 9.35739C6.92249 9.27057 6.82217 9.20131 6.71126 9.15367C6.60035 9.10602 6.48106 9.08094 6.36035 9.07989C6.23964 9.07884 6.11993 9.10185 6.00821 9.14756C5.89648 9.19327 5.79498 9.26077 5.70963 9.34613C5.62427 9.43148 5.55677 9.53298 5.51106 9.64471C5.46535 9.75643 5.44234 9.87614 5.44339 9.99685C5.44444 10.1176 5.46952 10.2368 5.51717 10.3478C5.56481 10.4587 5.63407 10.559 5.72089 10.6428L8.44816 13.3701C8.61383 13.5358 8.83707 13.6311 9.07132 13.6362C9.30557 13.6413 9.53274 13.5557 9.70543 13.3974L15.16 8.39739C15.3377 8.23441 15.4433 8.00751 15.4537 7.76661C15.4641 7.52571 15.3784 7.29054 15.2154 7.11285C15.0524 6.93515 14.8255 6.82948 14.5846 6.81908C14.3437 6.80868 14.1086 6.89441 13.9309 7.05739V7.05739Z"/>
</svg>
