<svg width="20" height="11" viewBox="0 0 20 11" fill="none" xmlns="http://www.w3.org/2000/svg">
<path d="M19.6273 1.77879L10.6273 9.77878C10.4448 9.9391 10.2102 10.0275 9.96728 10.0275C9.72437 10.0275 9.48977 9.9391 9.30728 9.77878L0.307278 1.77879C0.121445 1.6003 0.0116842 1.35696 0.000880246 1.09952C-0.00992376 0.842077 0.0790634 0.5904 0.249287 0.396964C0.419511 0.203528 0.657833 0.0832638 0.91456 0.0612484C1.17129 0.039233 1.42661 0.117165 1.62728 0.278796L9.96728 7.68878L18.3073 0.278796C18.4046 0.185284 18.5199 0.112452 18.6462 0.0646883C18.7724 0.0169249 18.9071 -0.00478066 19.0419 0.000879482C19.1768 0.00653962 19.3091 0.0394483 19.4309 0.0976224C19.5528 0.155797 19.6615 0.238031 19.7507 0.339371C19.8399 0.440711 19.9076 0.559058 19.9498 0.687279C19.9921 0.8155 20.0079 0.950941 19.9963 1.08544C19.9848 1.21994 19.9462 1.35071 19.8827 1.46987C19.8193 1.58903 19.7324 1.69412 19.6273 1.77879Z"/>
</svg>
