<svg width="20" height="20" viewBox="0 0 20 20" fill="none" xmlns="http://www.w3.org/2000/svg">
<path d="M10 20C8.02219 20 6.08879 19.4135 4.4443 18.3147C2.79981 17.2159 1.51809 15.6541 0.761209 13.8268C0.00433284 11.9996 -0.1937 9.98891 0.192152 8.0491C0.578004 6.10929 1.53041 4.32746 2.92894 2.92893C4.32746 1.53041 6.10929 0.578001 8.0491 0.192149C9.98891 -0.193704 11.9996 0.0043298 13.8268 0.761206C15.6541 1.51808 17.2159 2.79981 18.3147 4.4443C19.4135 6.08879 20 8.02219 20 10C20 11.3132 19.7413 12.6136 19.2388 13.8268C18.7362 15.0401 17.9997 16.1425 17.0711 17.0711C16.1425 17.9997 15.0401 18.7362 13.8268 19.2388C12.6136 19.7413 11.3132 20 10 20V20ZM12.69 6.71C12.7837 6.61704 12.8581 6.50644 12.9089 6.38458C12.9597 6.26272 12.9858 6.13201 12.9858 6C12.9858 5.86799 12.9597 5.73728 12.9089 5.61542C12.8581 5.49357 12.7837 5.38297 12.69 5.29C12.5062 5.10766 12.2589 5.00371 12 5C11.8684 4.99924 11.7379 5.02447 11.6161 5.07423C11.4943 5.12399 11.3834 5.19732 11.29 5.29L7.29 9.29C7.19627 9.38296 7.12188 9.49357 7.07111 9.61542C7.02034 9.73728 6.9942 9.86799 6.9942 10C6.9942 10.132 7.02034 10.2627 7.07111 10.3846C7.12188 10.5064 7.19627 10.617 7.29 10.71L11.29 14.71C11.3832 14.8032 11.4939 14.8772 11.6158 14.9277C11.7376 14.9781 11.8681 15.0041 12 15.0041C12.1319 15.0041 12.2624 14.9781 12.3843 14.9277C12.5061 14.8772 12.6168 14.8032 12.71 14.71C12.8032 14.6168 12.8772 14.5061 12.9277 14.3842C12.9781 14.2624 13.0041 14.1319 13.0041 14C13.0041 13.8681 12.9781 13.7376 12.9277 13.6158C12.8772 13.4939 12.8032 13.3832 12.71 13.29L9.42 10L12.69 6.71Z"/>
</svg>
