<svg width="20" height="20" viewBox="0 0 20 20" fill="none" xmlns="http://www.w3.org/2000/svg">
<path d="M10 0C11.9778 0 13.9112 0.58649 15.5557 1.6853C17.2002 2.78412 18.4819 4.3459 19.2388 6.17316C19.9957 8.00043 20.1937 10.0111 19.8078 11.9509C19.422 13.8907 18.4696 15.6725 17.0711 17.0711C15.6725 18.4696 13.8907 19.422 11.9509 19.8079C10.0111 20.1937 8.00042 19.9957 6.17316 19.2388C4.3459 18.4819 2.78412 17.2002 1.6853 15.5557C0.58649 13.9112 -2.38418e-07 11.9778 -2.38418e-07 10C-2.38418e-07 8.68678 0.258656 7.38642 0.761203 6.17316C1.26375 4.95991 2.00035 3.85752 2.92893 2.92893C3.85752 2.00035 4.95991 1.26375 6.17316 0.761205C7.38642 0.258658 8.68678 0 10 0V0ZM7.31 13.29C7.21627 13.383 7.14187 13.4936 7.09111 13.6154C7.04034 13.7373 7.0142 13.868 7.0142 14C7.0142 14.132 7.04034 14.2627 7.09111 14.3846C7.14187 14.5064 7.21627 14.617 7.31 14.71C7.49379 14.8923 7.74113 14.9963 8 15C8.1316 15.0008 8.26207 14.9755 8.3839 14.9258C8.50574 14.876 8.61656 14.8027 8.71 14.71L12.71 10.71C12.8037 10.617 12.8781 10.5064 12.9289 10.3846C12.9797 10.2627 13.0058 10.132 13.0058 10C13.0058 9.86799 12.9797 9.73728 12.9289 9.61542C12.8781 9.49356 12.8037 9.38296 12.71 9.29L8.71 5.29C8.61676 5.19676 8.50607 5.1228 8.38425 5.07234C8.26243 5.02188 8.13186 4.99591 8 4.99591C7.86814 4.99591 7.73757 5.02188 7.61575 5.07234C7.49393 5.1228 7.38324 5.19676 7.29 5.29C7.19676 5.38324 7.1228 5.49393 7.07234 5.61575C7.02188 5.73757 6.99591 5.86814 6.99591 6C6.99591 6.13186 7.02188 6.26243 7.07234 6.38425C7.1228 6.50607 7.19676 6.61676 7.29 6.71L10.58 10L7.31 13.29Z"/>
</svg>
