<svg width="20" height="20" viewBox="0 0 20 20" fill="none" xmlns="http://www.w3.org/2000/svg">
<path d="M16.4086 7.92C16.1486 4.61214 13.3736 2 10 2C7.11429 2 4.63714 3.87429 3.83786 6.60786C1.55786 7.39929 0 9.55929 0 12C0 15.1507 2.56357 17.7143 5.71429 17.7143H15C17.7571 17.7143 20 15.4714 20 12.7143C20 10.465 18.5214 8.53429 16.4086 7.92ZM13.5171 10.1307C13.4064 10.3971 13.1457 10.5714 12.8571 10.5714H11.4286V13.4286C11.4286 14.2171 10.7886 14.8571 10 14.8571C9.21143 14.8571 8.57143 14.2171 8.57143 13.4286V10.5714H7.14286C6.85429 10.5714 6.59357 10.3971 6.48286 10.1307C6.37214 9.86357 6.43357 9.55643 6.63786 9.35214L9.495 6.495C9.63429 6.35571 9.81714 6.28571 10 6.28571C10.1829 6.28571 10.3657 6.35571 10.505 6.495L13.3621 9.35214C13.5664 9.55643 13.6279 9.86357 13.5171 10.1307V10.1307Z"/>
</svg>
