<svg width="20" height="20" viewBox="0 0 20 20" fill="none" xmlns="http://www.w3.org/2000/svg">
<path d="M9.0879 8.87113C8.58387 9.36316 8.58387 10.1606 9.0879 10.6523C9.59153 11.1443 10.4089 11.1443 10.9125 10.6523C11.4165 10.1603 11.4165 9.36277 10.9125 8.87113C10.4085 8.37949 9.59153 8.37949 9.0879 8.87113ZM10 0C4.47702 0 0 4.37042 0 9.7619C0 15.1534 4.47702 19.5238 10 19.5238C15.523 19.5238 20 15.1534 20 9.7619C20 4.37042 15.523 0 10 0ZM15.0863 5.82762L12.4262 11.5096C12.2975 11.7844 12.0718 12.0047 11.7903 12.1303L5.97016 14.7271C5.29879 15.0266 4.60685 14.3512 4.91371 13.6958L7.57419 8.01382C7.70286 7.73903 7.92859 7.51867 8.21008 7.39307L14.0302 4.79632C14.7016 4.49717 15.3931 5.17224 15.0863 5.82762V5.82762Z"/>
</svg>
