<svg width="20" height="20" viewBox="0 0 20 20" fill="none" xmlns="http://www.w3.org/2000/svg">
<path fill-rule="evenodd" clip-rule="evenodd" d="M9.99999 12.443C8.7734 12.443 7.77777 11.4491 7.77777 10.2215C7.77777 8.9939 8.7734 8.00002 9.99999 8.00002C11.2266 8.00002 12.2222 8.9939 12.2222 10.2215C12.2222 11.4491 11.2266 12.443 9.99999 12.443Z"/>
<path fill-rule="evenodd" clip-rule="evenodd" d="M2.22222 12.443C0.995633 12.443 -4.34437e-08 11.4491 -9.71035e-08 10.2215C-1.50763e-07 8.9939 0.995633 8.00002 2.22222 8.00002C3.44881 8.00002 4.44444 8.9939 4.44444 10.2215C4.44444 11.4491 3.44881 12.443 2.22222 12.443Z"/>
<path fill-rule="evenodd" clip-rule="evenodd" d="M17.7778 12.443C16.5512 12.443 15.5555 11.4491 15.5555 10.2215C15.5555 8.9939 16.5512 8.00002 17.7778 8.00002C19.0044 8.00002 20 8.9939 20 10.2215C20 11.4491 19.0044 12.443 17.7778 12.443Z"/>
</svg>
