<svg width="20" height="20" viewBox="0 0 20 20" fill="none" xmlns="http://www.w3.org/2000/svg">
<path fill-rule="evenodd" clip-rule="evenodd" d="M17.2727 3.81818H2.72727C2.2252 3.81818 1.81818 4.2252 1.81818 4.72727V15.6364C1.81818 16.1385 2.2252 16.5455 2.72727 16.5455H17.2727C17.7748 16.5455 18.1818 16.1385 18.1818 15.6364V4.72727C18.1818 4.2252 17.7748 3.81818 17.2727 3.81818ZM2.72727 2C1.22105 2 0 3.22105 0 4.72727V15.6364C0 17.1426 1.22105 18.3636 2.72727 18.3636H17.2727C18.779 18.3636 20 17.1426 20 15.6364V4.72727C20 3.22105 18.779 2 17.2727 2H2.72727Z"/>
<path fill-rule="evenodd" clip-rule="evenodd" d="M3.84702 5.96336C4.16845 5.57765 4.74168 5.52554 5.12739 5.84696L9.41796 9.42243C9.75514 9.70334 10.2448 9.70334 10.582 9.42243L14.8725 5.84696C15.2582 5.52554 15.8315 5.57765 16.1529 5.96336C16.4743 6.34907 16.4222 6.9223 16.0365 7.24373L11.7459 10.8192C10.7345 11.6621 9.26541 11.6621 8.25396 10.8192L3.96342 7.24373C3.57771 6.9223 3.5256 6.34907 3.84702 5.96336V5.96336Z"/>
</svg>
