<svg width="20" height="20" viewBox="0 0 20 20" fill="none" xmlns="http://www.w3.org/2000/svg">
<path d="M13.8571 4.28571V0.45L17.7571 5H14.5714C14.382 5 14.2003 4.92475 14.0664 4.79079C13.9324 4.65684 13.8571 4.47515 13.8571 4.28571V4.28571ZM14.5714 6.42857C14.0031 6.42857 13.4581 6.20281 13.0562 5.80094C12.6543 5.39908 12.4286 4.85404 12.4286 4.28571V0H3.14286C2.57454 0 2.02949 0.225765 1.62763 0.627628C1.22576 1.02949 1 1.57454 1 2.14286V17.8571C1 18.4255 1.22576 18.9705 1.62763 19.3724C2.02949 19.7742 2.57454 20 3.14286 20H16C16.5683 20 17.1134 19.7742 17.5152 19.3724C17.9171 18.9705 18.1429 18.4255 18.1429 17.8571V6.42857H14.5714Z"/>
</svg>
