<svg width="20" height="20" viewBox="0 0 20 20" fill="none" xmlns="http://www.w3.org/2000/svg">
<path d="M18.5714 0H1.42411C0.638393 0 0 0.62035 0 1.38188V17.7848C0 18.5463 0.638393 19.1667 1.42411 19.1667H18.5714C19.3571 19.1667 20 18.5463 20 17.7848V1.38188C20 0.62035 19.3571 0 18.5714 0ZM6.04464 16.4286H3.08036V7.28162H6.04911V16.4286H6.04464ZM4.5625 6.03237C3.61161 6.03237 2.84375 5.29222 2.84375 4.38523C2.84375 3.47824 3.61161 2.73809 4.5625 2.73809C5.50893 2.73809 6.28125 3.47824 6.28125 4.38523C6.28125 5.2965 5.51339 6.03237 4.5625 6.03237V6.03237ZM17.1562 16.4286H14.192V11.9792C14.192 10.9182 14.1696 9.55338 12.6518 9.55338C11.1071 9.55338 10.8705 10.7085 10.8705 11.9022V16.4286H7.90625V7.28162H10.75V8.53088H10.7902C11.1875 7.81213 12.1562 7.05487 13.5982 7.05487C16.5982 7.05487 17.1562 8.95015 17.1562 11.4144V16.4286V16.4286Z"/>
</svg>
