<svg width="20" height="20" viewBox="0 0 20 20" fill="none" xmlns="http://www.w3.org/2000/svg">
<path fill-rule="evenodd" clip-rule="evenodd" d="M14.4744 13.9402C15.7553 12.1622 16.6311 10.208 16.6311 8.22998C16.6311 4.69476 13.7652 1.82888 10.23 1.82888C6.69476 1.82888 3.82888 4.69476 3.82888 8.22998C3.82888 10.208 4.70464 12.1622 5.98556 13.9402C7.25684 15.7048 8.82 17.1461 9.93453 18.0589C10.1173 18.2086 10.3426 18.2086 10.5254 18.0589C11.64 17.1461 13.2031 15.7048 14.4744 13.9402V13.9402ZM11.6843 19.4737C14.0474 17.5382 18.46 13.2518 18.46 8.22998C18.46 3.68469 14.7753 0 10.23 0C5.68469 0 2 3.68469 2 8.22998C2 13.2518 6.41252 17.5382 8.77565 19.4737C9.63249 20.1754 10.8275 20.1754 11.6843 19.4737Z"/>
<path fill-rule="evenodd" clip-rule="evenodd" d="M10.23 6.40115C9.21994 6.40115 8.40115 7.21996 8.40115 8.23003C8.40115 9.24012 9.21994 10.0589 10.23 10.0589C11.2401 10.0589 12.0589 9.24012 12.0589 8.23003C12.0589 7.21996 11.2401 6.40115 10.23 6.40115ZM6.57227 8.23003C6.57227 6.2099 8.2099 4.57227 10.23 4.57227C12.2501 4.57227 13.8878 6.2099 13.8878 8.23003C13.8878 10.2501 12.2501 11.8878 10.23 11.8878C8.2099 11.8878 6.57227 10.2501 6.57227 8.23003Z"/>
</svg>
