<svg width="20" height="20" viewBox="0 0 20 20" fill="none" xmlns="http://www.w3.org/2000/svg">
<path d="M9.65625 0C5.43457 0 2 3.43457 2 7.65625C2 9.00758 2.35703 10.3361 3.03246 11.4982C3.18992 11.7692 3.36594 12.0332 3.5557 12.283L9.32359 20H9.98887L15.7568 12.283C15.9465 12.0332 16.1225 11.7692 16.28 11.4983C16.9555 10.3361 17.3125 9.00758 17.3125 7.65625C17.3125 3.43457 13.8779 0 9.65625 0ZM9.65625 10.1953C8.25621 10.1953 7.11719 9.05629 7.11719 7.65625C7.11719 6.25621 8.25621 5.11719 9.65625 5.11719C11.0563 5.11719 12.1953 6.25621 12.1953 7.65625C12.1953 9.05629 11.0563 10.1953 9.65625 10.1953Z"/>
</svg>
