<svg width="20" height="20" viewBox="0 0 20 20" fill="none" xmlns="http://www.w3.org/2000/svg">
<path fill-rule="evenodd" clip-rule="evenodd" d="M2.58176 0.857526C3.84152 -0.402228 5.92497 -0.254162 6.99389 1.17109L8.76829 3.5369C9.64236 4.70241 9.52653 6.33334 8.49632 7.36352L7.18812 8.67171C7.3149 9.00175 7.73225 9.72583 9.00318 10.9968C10.2741 12.2677 10.9983 12.6851 11.3283 12.8119L12.6365 11.5037C13.6667 10.4735 15.2976 10.3576 16.4631 11.2318L18.8289 13.0061C20.2541 14.0751 20.4023 16.1585 19.1425 17.4183C18.7329 17.8278 18.6636 17.8971 17.9801 18.5806C17.2836 19.2772 15.8046 19.9282 14.307 19.9933C11.9637 20.0952 8.78078 19.0548 4.86302 15.137C0.9453 11.2193 -0.0952196 8.03628 0.00666887 5.69294C0.0633462 4.3894 0.47778 2.9577 1.42487 2.02532C2.10289 1.3364 2.19107 1.24822 2.58176 0.857526V0.857526ZM1.95652 5.77772C1.8859 7.40207 2.57047 10.0844 6.24308 13.757C9.91569 17.4296 12.5979 18.1141 14.2223 18.0435C15.7386 17.9775 16.5521 17.2448 16.6001 17.2005L17.7624 16.0382C18.1823 15.6183 18.133 14.9238 17.6579 14.5675L15.292 12.7931C14.9036 12.5017 14.3599 12.5404 14.0165 12.8838C13.4992 13.4012 13.146 13.7595 12.4547 14.4483C11.0186 15.879 8.56034 13.314 7.62314 12.3769C6.76187 11.5156 4.13717 8.9793 5.55034 7.54938C5.55314 7.54657 5.93377 7.16594 7.11624 5.98346C7.45964 5.64007 7.49828 5.09642 7.2069 4.70792L5.43253 2.34211C5.07622 1.86702 4.38174 1.81767 3.96183 2.23758C3.57533 2.62407 3.13794 3.06146 2.80065 3.40109C2.10646 4.10008 1.99368 4.92327 1.95652 5.77772V5.77772Z"/>
</svg>
