<svg width="20" height="20" viewBox="0 0 20 20" fill="none" xmlns="http://www.w3.org/2000/svg">
<path d="M10 0C4.47719 0 0 4.47719 0 10C0 15.5228 4.47719 20 10 20C15.5232 20 20 15.5228 20 10C20 4.47719 15.5232 0 10 0ZM10 18C5.58879 18 2 14.4112 2 10C2 5.58879 5.58879 2 10 2C14.4112 2 18 5.58879 18 10C18 14.4112 14.4112 18 10 18Z"/>
<path d="M13.6372 9.29992L8.78758 6.49992C8.12078 6.11512 7.5752 6.42992 7.5752 7.19992V12.7999C7.5752 13.5699 8.12078 13.8851 8.78758 13.4999L13.6372 10.6999C14.304 10.3151 14.304 9.68472 13.6372 9.29992Z"/>
</svg>
