<svg width="20" height="20" viewBox="0 0 20 20" fill="none" xmlns="http://www.w3.org/2000/svg">
<path d="M10.4046 5.60143C7.9752 5.60143 5.87177 7.28874 5.34477 9.66027L3.61889 17.4267C3.60623 17.4837 3.59984 17.5419 3.59984 17.6002C3.59984 18.042 3.95798 18.4002 4.39976 18.4002H16.4094C16.4678 18.4002 16.526 18.3938 16.5829 18.3811C17.0142 18.2853 17.2861 17.858 17.1903 17.4267L15.4644 9.66027C14.9374 7.28874 12.834 5.60143 10.4046 5.60143ZM10.4046 4.00159C13.5838 4.00159 16.3365 6.2097 17.0261 9.31322L18.752 17.0797C19.0395 18.3734 18.2238 19.6553 16.93 19.9429C16.7591 19.9808 16.5845 20 16.4094 20H4.39976C3.07441 20 2 18.9256 2 17.6002C2 17.4251 2.01916 17.2506 2.05715 17.0797L3.78302 9.31322C4.47269 6.2097 7.22536 4.00159 10.4046 4.00159Z"/>
<path d="M12.0045 8.80111C12.4463 8.80111 12.8044 9.15924 12.8044 9.60103C12.8044 10.0428 12.4463 10.4009 12.0045 10.4009H10.0047C9.78379 10.4009 9.60472 10.58 9.60472 10.8009C9.60472 11.0218 9.78379 11.2009 10.0047 11.2009H10.8046C11.9091 11.2009 12.8044 12.0962 12.8044 13.2007C12.8044 14.3051 11.9091 15.2005 10.8046 15.2005H8.8048C8.36302 15.2005 8.00488 14.8423 8.00488 14.4006C8.00488 13.9588 8.36302 13.6006 8.8048 13.6006H10.8046C11.0255 13.6006 11.2046 13.4216 11.2046 13.2007C11.2046 12.9798 11.0255 12.8007 10.8046 12.8007H10.0047C8.90022 12.8007 8.00488 11.9054 8.00488 10.8009C8.00488 9.69645 8.90022 8.80111 10.0047 8.80111H12.0045Z"/>
<path d="M9.60474 8.0012C9.60474 7.55942 9.96288 7.20128 10.4047 7.20128C10.8465 7.20128 11.2046 7.55942 11.2046 8.0012V9.60105C11.2046 10.0428 10.8465 10.401 10.4047 10.401C9.96288 10.401 9.60474 10.0428 9.60474 9.60105V8.0012Z"/>
<path d="M11.2046 16.0004C11.2046 16.4422 10.8465 16.8003 10.4047 16.8003C9.96288 16.8003 9.60474 16.4422 9.60474 16.0004V14.4006C9.60474 13.9588 9.96288 13.6007 10.4047 13.6007C10.8465 13.6007 11.2046 13.9588 11.2046 14.4006V16.0004Z"/>
<path d="M9.54748 4.50445C9.71155 4.91463 9.51204 5.38016 9.10185 5.54424C8.69167 5.70831 8.22614 5.5088 8.06206 5.09861L6.46222 1.09901C6.20224 0.449068 6.84348 -0.197693 7.49563 0.0566953C8.09463 0.290354 8.54108 0.401965 8.80477 0.401965C8.87041 0.401965 8.92483 0.387937 9.04361 0.33746C9.07514 0.324059 9.11218 0.307698 9.19907 0.269255C9.6128 0.0879397 9.93961 0.00200497 10.4046 0.00200497C10.8685 0.00200497 11.2005 0.0881679 11.6156 0.267733C11.7209 0.313853 11.763 0.332196 11.8002 0.347533C11.9028 0.389764 11.9521 0.401965 12.0045 0.401965C12.2527 0.401965 12.7032 0.28935 13.3194 0.0544675C13.9707 -0.193814 14.6059 0.451807 14.347 1.09901L12.7472 5.09861C12.5831 5.5088 12.1176 5.70831 11.7074 5.54424C11.2972 5.38016 11.0977 4.91463 11.2617 4.50445L12.2683 1.98805C12.1763 1.9972 12.0884 2.00181 12.0045 2.00181C11.7125 2.00181 11.4706 1.94195 11.1911 1.82687C11.1359 1.80414 11.0754 1.77776 10.9804 1.73608C10.7489 1.6359 10.6177 1.60185 10.4046 1.60185C10.1936 1.60185 10.0697 1.63442 9.84124 1.73456C9.76276 1.76933 9.71304 1.79129 9.66931 1.80987C9.36971 1.93719 9.11906 2.00181 8.80477 2.00181C8.72029 2.00181 8.63247 1.99742 8.54118 1.9887L9.54748 4.50445Z"/>
</svg>
