<svg width="20" height="20" viewBox="0 0 20 20" fill="none" xmlns="http://www.w3.org/2000/svg">
<path d="M19.9462 7.22644C19.7922 6.75217 19.3318 6.42619 18.6834 6.33201L13.5407 5.58465L11.2409 0.924662C10.9509 0.337036 10.4986 0 9.99999 0C9.50139 0 9.04911 0.337036 8.75911 0.924662L6.45935 5.58462L1.31665 6.33197C0.668128 6.42615 0.207848 6.75217 0.0537437 7.22636C-0.100321 7.70058 0.0804629 8.23485 0.54965 8.69224L4.27092 12.3195L3.39243 17.4415C3.27692 18.1152 3.47309 18.5181 3.65806 18.7374C3.87439 18.994 4.18998 19.1353 4.5467 19.1353C4.81639 19.1353 5.10362 19.0563 5.40023 18.9002L9.99999 16.482L14.5997 18.9002C14.8964 19.0561 15.1836 19.1353 15.4534 19.1353H15.4534C15.8102 19.1353 16.1258 18.994 16.3421 18.7374C16.527 18.5181 16.7233 18.1152 16.6077 17.4414L15.7291 12.3195L19.4503 8.69232C19.9196 8.23493 20.1003 7.70062 19.9462 7.22644V7.22644Z"/>
</svg>
