<svg width="20" height="20" viewBox="0 0 20 20" fill="none" xmlns="http://www.w3.org/2000/svg">
<path d="M17.9442 5.41624C17.9569 5.61005 17.9569 5.8039 17.9569 5.9977C17.9569 11.9091 13.8326 18.7204 6.29444 18.7204C3.97209 18.7204 1.81473 17.9866 0 16.713C0.329962 16.7545 0.64719 16.7684 0.989848 16.7684C2.90607 16.7684 4.67006 16.0624 6.0787 14.8579C4.27666 14.8164 2.7665 13.5289 2.24618 11.7568C2.50001 11.7983 2.7538 11.826 3.02032 11.826C3.38833 11.826 3.75638 11.7706 4.099 11.6738C2.22083 11.2584 0.812152 9.45871 0.812152 7.2852V7.22984C1.35782 7.5621 1.99239 7.76976 2.66493 7.79741C1.56087 6.99444 0.837542 5.6239 0.837542 4.07335C0.837542 3.24272 1.04055 2.4813 1.3959 1.81678C3.41369 4.53021 6.44671 6.30222 9.84769 6.49607C9.78426 6.16381 9.74617 5.81775 9.74617 5.47164C9.74617 3.00737 11.5736 1 13.8452 1C15.0254 1 16.0914 1.53992 16.8401 2.41209C17.7665 2.21829 18.6548 1.84448 19.4416 1.33226C19.137 2.37059 18.4898 3.24276 17.6396 3.79649C18.4645 3.69963 19.264 3.45038 20 3.10431C19.4417 3.9903 18.7437 4.77938 17.9442 5.41624V5.41624Z"/>
</svg>
