<svg width="20" height="20" viewBox="0 0 20 20" fill="none" xmlns="http://www.w3.org/2000/svg">
<path fill-rule="evenodd" clip-rule="evenodd" d="M7.17475 10.4811C7.11936 10.4324 6.99139 10.3194 6.94589 10.2766C5.83612 9.23375 5.10909 7.60063 5.10909 5.76016C5.10909 2.54645 7.32061 0 9.95155 0C12.5824 0 14.794 2.54645 14.794 5.76016C14.794 7.59906 14.0682 9.23102 12.9614 10.2756C12.9148 10.3196 12.7844 10.4349 12.7297 10.483L12.725 10.5629C12.756 11.0423 13.0781 11.4577 13.5405 11.6043C16.9779 12.6914 19.4699 15.289 19.8883 18.3677C19.9459 18.7784 19.8228 19.1939 19.5506 19.5068C19.2785 19.8197 18.8842 19.9994 18.4696 19.9994C15.4358 20 4.46737 20 1.43358 20C1.01874 20 0.624207 19.8202 0.35198 19.5072C0.0797537 19.1941 -0.0434885 18.7785 0.0137381 18.3704C0.433191 15.2889 2.92518 12.6914 6.36202 11.6044C6.82608 11.4573 7.14858 11.0402 7.17827 10.5592L7.17475 10.4811Z" fill="white"/>
</svg>
