<svg width="20" height="20" viewBox="0 0 20 20" fill="none" xmlns="http://www.w3.org/2000/svg">
<path d="M19.5372 15.0509L14.4869 9.99952L19.5356 4.94972C20.1528 4.33245 20.1528 3.32314 19.5356 2.70561L17.289 0.461805C16.6719 -0.153935 15.6628 -0.153935 15.0457 0.461805L9.99672 5.5116L4.94824 0.461805C4.33264 -0.153935 3.32202 -0.153935 2.70463 0.461805L0.462855 2.70561C-0.154285 3.32289 -0.154285 4.3322 0.462855 4.94972L5.51158 9.99957L0.462855 15.0509C-0.154285 15.6682 -0.154285 16.6775 0.462855 17.2947L2.70646 19.537C3.32361 20.1543 4.33417 20.1543 4.94978 19.537L9.99851 14.489L15.0469 19.537C15.6641 20.1543 16.6732 20.1543 17.2936 19.537L19.5372 17.2947C20.1543 16.6774 20.1543 15.6681 19.5372 15.0509Z"/>
</svg>
