<svg width="20" height="20" viewBox="0 0 20 20" fill="none" xmlns="http://www.w3.org/2000/svg">
<path d="M19.5821 5.25311C19.3521 4.36624 18.6744 3.66776 17.8139 3.43072C16.2542 3 10 3 10 3C10 3 3.74586 3 2.18613 3.43072C1.32565 3.6678 0.647936 4.36624 0.417919 5.25311C0 6.86062 0 10.2145 0 10.2145C0 10.2145 0 13.5685 0.417919 15.176C0.647936 16.0629 1.32565 16.7322 2.18613 16.9693C3.74586 17.4 10 17.4 10 17.4C10 17.4 16.2541 17.4 17.8139 16.9693C18.6744 16.7322 19.3521 16.0629 19.5821 15.176C20 13.5685 20 10.2145 20 10.2145C20 10.2145 20 6.86062 19.5821 5.25311V5.25311ZM7.95453 13.2597V7.16944L13.1818 10.2146L7.95453 13.2597V13.2597Z"/>
</svg>
